<svg width="24" height="25" viewBox="0 0 24 25" fill="none" xmlns="http://www.w3.org/2000/svg">
<path d="M16 21.5V19.5C16 18.4391 15.5786 17.4217 14.8284 16.6716C14.0783 15.9214 13.0609 15.5 12 15.5H5C3.93913 15.5 2.92172 15.9214 2.17157 16.6716C1.42143 17.4217 1 18.4391 1 19.5V21.5" stroke="#707781" stroke-width="2" stroke-linecap="round" stroke-linejoin="round"/>
<path d="M8.5 11.5C10.7091 11.5 12.5 9.70914 12.5 7.5C12.5 5.29086 10.7091 3.5 8.5 3.5C6.29086 3.5 4.5 5.29086 4.5 7.5C4.5 9.70914 6.29086 11.5 8.5 11.5Z" stroke="#707781" stroke-width="2" stroke-linecap="round" stroke-linejoin="round"/>
<path d="M17 11.5L19 13.5L23 9.5" stroke="#707781" stroke-width="2" stroke-linecap="round" stroke-linejoin="round"/>
</svg>
