<svg width="141" height="59" viewBox="0 0 141 59" fill="none" xmlns="http://www.w3.org/2000/svg">
<path d="M12.656 41V18.6H17.84V36.776H29.072V41H12.656ZM32.2565 41V23.784H37.2485V41H32.2565ZM34.7525 21.384C33.8352 21.384 33.0885 21.1173 32.5125 20.584C31.9365 20.0507 31.6485 19.3893 31.6485 18.6C31.6485 17.8107 31.9365 17.1493 32.5125 16.616C33.0885 16.0827 33.8352 15.816 34.7525 15.816C35.6698 15.816 36.4165 16.072 36.9925 16.584C37.5685 17.0747 37.8565 17.7147 37.8565 18.504C37.8565 19.336 37.5685 20.0293 36.9925 20.584C36.4378 21.1173 35.6912 21.384 34.7525 21.384ZM52.6975 41.256C51.1828 41.256 49.8815 40.936 48.7935 40.296C47.7055 39.656 46.8735 38.6853 46.2975 37.384C45.7215 36.0613 45.4335 34.3973 45.4335 32.392C45.4335 30.3653 45.7322 28.7013 46.3295 27.4C46.9482 26.0987 47.8015 25.128 48.8895 24.488C49.9775 23.848 51.2468 23.528 52.6975 23.528C54.3188 23.528 55.7695 23.8907 57.0495 24.616C58.3508 25.3413 59.3748 26.3653 60.1215 27.688C60.8895 29.0107 61.2735 30.5787 61.2735 32.392C61.2735 34.184 60.8895 35.7413 60.1215 37.064C59.3748 38.3867 58.3508 39.4213 57.0495 40.168C55.7695 40.8933 54.3188 41.256 52.6975 41.256ZM42.5215 41V17.256H47.5135V27.272L47.1935 32.36L47.2895 37.48V41H42.5215ZM51.8335 37.16C52.6655 37.16 53.4015 36.968 54.0415 36.584C54.7028 36.2 55.2255 35.656 55.6095 34.952C56.0148 34.2267 56.2175 33.3733 56.2175 32.392C56.2175 31.3893 56.0148 30.536 55.6095 29.832C55.2255 29.128 54.7028 28.584 54.0415 28.2C53.4015 27.816 52.6655 27.624 51.8335 27.624C51.0015 27.624 50.2548 27.816 49.5935 28.2C48.9322 28.584 48.4095 29.128 48.0255 29.832C47.6415 30.536 47.4495 31.3893 47.4495 32.392C47.4495 33.3733 47.6415 34.2267 48.0255 34.952C48.4095 35.656 48.9322 36.2 49.5935 36.584C50.2548 36.968 51.0015 37.16 51.8335 37.16ZM65.2552 41V23.784H70.0232V28.648L69.3512 27.24C69.8632 26.024 70.6846 25.1067 71.8152 24.488C72.9459 23.848 74.3219 23.528 75.9432 23.528V28.136C75.7299 28.1147 75.5379 28.104 75.3672 28.104C75.1966 28.0827 75.0152 28.072 74.8232 28.072C73.4579 28.072 72.3486 28.4667 71.4952 29.256C70.6632 30.024 70.2472 31.2293 70.2472 32.872V41H65.2552ZM88.9865 41V37.64L88.6665 36.904V30.888C88.6665 29.8213 88.3358 28.9893 87.6745 28.392C87.0345 27.7947 86.0425 27.496 84.6985 27.496C83.7812 27.496 82.8745 27.6453 81.9785 27.944C81.1038 28.2213 80.3572 28.6053 79.7385 29.096L77.9465 25.608C78.8852 24.9467 80.0158 24.4347 81.3385 24.072C82.6612 23.7093 84.0052 23.528 85.3705 23.528C87.9945 23.528 90.0318 24.1467 91.4825 25.384C92.9332 26.6213 93.6585 28.552 93.6585 31.176V41H88.9865ZM83.7385 41.256C82.3945 41.256 81.2425 41.032 80.2825 40.584C79.3225 40.1147 78.5865 39.4853 78.0745 38.696C77.5625 37.9067 77.3065 37.0213 77.3065 36.04C77.3065 35.016 77.5518 34.12 78.0425 33.352C78.5545 32.584 79.3545 31.9867 80.4425 31.56C81.5305 31.112 82.9492 30.888 84.6985 30.888H89.2745V33.8H85.2425C84.0692 33.8 83.2585 33.992 82.8105 34.376C82.3838 34.76 82.1705 35.24 82.1705 35.816C82.1705 36.456 82.4158 36.968 82.9065 37.352C83.4185 37.7147 84.1118 37.896 84.9865 37.896C85.8185 37.896 86.5652 37.704 87.2265 37.32C87.8878 36.9147 88.3678 36.328 88.6665 35.56L89.4345 37.864C89.0718 38.9733 88.4105 39.816 87.4505 40.392C86.4905 40.968 85.2532 41.256 83.7385 41.256ZM98.8165 41V23.784H103.584V28.648L102.912 27.24C103.424 26.024 104.246 25.1067 105.376 24.488C106.507 23.848 107.883 23.528 109.504 23.528V28.136C109.291 28.1147 109.099 28.104 108.928 28.104C108.758 28.0827 108.576 28.072 108.384 28.072C107.019 28.072 105.91 28.4667 105.056 29.256C104.224 30.024 103.808 31.2293 103.808 32.872V41H98.8165ZM115.882 47.464C114.986 47.464 114.101 47.3253 113.226 47.048C112.352 46.7707 111.637 46.3867 111.082 45.896L112.906 42.344C113.29 42.6853 113.728 42.952 114.218 43.144C114.73 43.336 115.232 43.432 115.722 43.432C116.426 43.432 116.981 43.2613 117.386 42.92C117.813 42.6 118.197 42.056 118.538 41.288L119.434 39.176L119.818 38.632L125.994 23.784H130.794L123.018 42.056C122.464 43.4427 121.824 44.5307 121.098 45.32C120.394 46.1093 119.605 46.664 118.73 46.984C117.877 47.304 116.928 47.464 115.882 47.464ZM118.826 41.672L111.146 23.784H116.298L122.25 38.184L118.826 41.672Z" fill="#4BA7D4"/>
</svg>
